<mxfile host="Electron" agent="Mozilla/5.0 (Windows NT 10.0; Win64; x64) AppleWebKit/537.36 (KHTML, like Gecko) draw.io/26.1.1 Chrome/132.0.6834.210 Electron/34.3.3 Safari/537.36" version="26.1.1">
  <diagram id="C5RBs43oDa-KdzZeNtuy" name="Page-1">
    <mxGraphModel dx="586" dy="382" grid="1" gridSize="10" guides="1" tooltips="1" connect="1" arrows="1" fold="1" page="1" pageScale="1" pageWidth="827" pageHeight="1169" math="0" shadow="0">
      <root>
        <mxCell id="WIyWlLk6GJQsqaUBKTNV-0" />
        <mxCell id="WIyWlLk6GJQsqaUBKTNV-1" parent="WIyWlLk6GJQsqaUBKTNV-0" />
        <mxCell id="YtukrQFSUKvpzbRls004-45" value="" style="edgeStyle=orthogonalEdgeStyle;rounded=0;orthogonalLoop=1;jettySize=auto;html=1;fontFamily=Helvetica;fontSize=12;fontColor=default;entryX=1.011;entryY=0.646;entryDx=0;entryDy=0;entryPerimeter=0;" edge="1" parent="WIyWlLk6GJQsqaUBKTNV-1" source="YtukrQFSUKvpzbRls004-37" target="YtukrQFSUKvpzbRls004-38">
          <mxGeometry relative="1" as="geometry">
            <Array as="points">
              <mxPoint x="363" y="400" />
              <mxPoint x="363" y="376" />
            </Array>
          </mxGeometry>
        </mxCell>
        <mxCell id="YtukrQFSUKvpzbRls004-46" value="" style="edgeStyle=orthogonalEdgeStyle;rounded=0;orthogonalLoop=1;jettySize=auto;html=1;fontFamily=Helvetica;fontSize=12;fontColor=default;" edge="1" parent="WIyWlLk6GJQsqaUBKTNV-1" target="YtukrQFSUKvpzbRls004-40">
          <mxGeometry relative="1" as="geometry">
            <mxPoint x="380" y="420" as="sourcePoint" />
          </mxGeometry>
        </mxCell>
        <mxCell id="YtukrQFSUKvpzbRls004-47" value="" style="edgeStyle=orthogonalEdgeStyle;rounded=0;orthogonalLoop=1;jettySize=auto;html=1;fontFamily=Helvetica;fontSize=12;fontColor=default;" edge="1" parent="WIyWlLk6GJQsqaUBKTNV-1" source="YtukrQFSUKvpzbRls004-37" target="YtukrQFSUKvpzbRls004-42">
          <mxGeometry relative="1" as="geometry">
            <Array as="points">
              <mxPoint x="433" y="420" />
              <mxPoint x="433" y="440" />
            </Array>
          </mxGeometry>
        </mxCell>
        <mxCell id="YtukrQFSUKvpzbRls004-48" value="" style="edgeStyle=orthogonalEdgeStyle;rounded=0;orthogonalLoop=1;jettySize=auto;html=1;fontFamily=Helvetica;fontSize=12;fontColor=default;entryX=-0.023;entryY=0.63;entryDx=0;entryDy=0;entryPerimeter=0;" edge="1" parent="WIyWlLk6GJQsqaUBKTNV-1" source="YtukrQFSUKvpzbRls004-37" target="YtukrQFSUKvpzbRls004-41">
          <mxGeometry relative="1" as="geometry" />
        </mxCell>
        <mxCell id="YtukrQFSUKvpzbRls004-37" value="Actor" style="shape=umlActor;verticalLabelPosition=bottom;verticalAlign=top;html=1;outlineConnect=0;" vertex="1" parent="WIyWlLk6GJQsqaUBKTNV-1">
          <mxGeometry x="383" y="370" width="30" height="60" as="geometry" />
        </mxCell>
        <mxCell id="YtukrQFSUKvpzbRls004-38" value="&lt;font face=&quot;Times New Roman&quot;&gt;选择文件上传&lt;br&gt;&lt;/font&gt;" style="rounded=1;whiteSpace=wrap;html=1;" vertex="1" parent="WIyWlLk6GJQsqaUBKTNV-1">
          <mxGeometry x="230" y="350" width="120" height="40" as="geometry" />
        </mxCell>
        <mxCell id="YtukrQFSUKvpzbRls004-40" value="&lt;font face=&quot;Times New Roman&quot;&gt;输入文件元数据&lt;br&gt;&lt;/font&gt;" style="rounded=1;whiteSpace=wrap;html=1;" vertex="1" parent="WIyWlLk6GJQsqaUBKTNV-1">
          <mxGeometry x="230" y="420" width="120" height="40" as="geometry" />
        </mxCell>
        <mxCell id="YtukrQFSUKvpzbRls004-41" value="&lt;font face=&quot;Times New Roman&quot;&gt;查看图片预览&lt;br&gt;&lt;/font&gt;" style="rounded=1;whiteSpace=wrap;html=1;" vertex="1" parent="WIyWlLk6GJQsqaUBKTNV-1">
          <mxGeometry x="450" y="350" width="120" height="40" as="geometry" />
        </mxCell>
        <mxCell id="YtukrQFSUKvpzbRls004-42" value="&lt;font face=&quot;Times New Roman&quot;&gt;选择或删除图像&lt;br&gt;&lt;/font&gt;" style="rounded=1;whiteSpace=wrap;html=1;" vertex="1" parent="WIyWlLk6GJQsqaUBKTNV-1">
          <mxGeometry x="450" y="420" width="120" height="40" as="geometry" />
        </mxCell>
      </root>
    </mxGraphModel>
  </diagram>
</mxfile>
